#N canvas 1535 29 2303 682 10;
#X msg 22 40 connect localhost 97211;
#X msg 113 72 disconnect;
#X obj 22 133 netsend -u -b;
#X floatatom 22 229 5 0 0 0 - - -;
#X obj 73 229 print;
#X obj 388 575 list trim;
#X obj 385 547 list prepend send;
#X obj 228 72 oscformat cyperus list mains;
#X obj 228 41 bng 15 250 50 0 empty empty empty 17 7 0 10 -262144 -1
-1;
#X obj 22 308 netreceive -u -b 97217;
#X obj 22 331 oscparse;
#X obj 22 354 list trim;
#X obj 22 400 print;
#X text 261 40 /cyperus/list/mains;
#X obj 471 109 oscformat cyperus add bus;
#X msg 467 28 list / main in out;
#X obj 705 368 print;
#X msg 684 20 list / 0;
#X obj 696 98 oscformat cyperus list buses;
#X text 484 71 /cyperus/add/bus;
#X text 716 62 /cyperus/list/buses;
#X connect 0 0 2 0;
#X connect 1 0 2 0;
#X connect 2 0 3 0;
#X connect 2 0 4 0;
#X connect 5 0 2 0;
#X connect 6 0 5 0;
#X connect 7 0 6 0;
#X connect 8 0 7 0;
#X connect 9 0 10 0;
#X connect 10 0 11 0;
#X connect 11 0 12 0;
#X connect 14 0 6 0;
#X connect 15 0 14 0;
#X connect 17 0 18 0;
#X connect 18 0 16 0;
#X connect 18 0 6 0;
