#N canvas 3832 29 2110 2109 10;
#X msg 22 88 connect localhost 97211;
#X msg 113 120 disconnect;
#X obj 22 181 netsend -u -b;
#X floatatom 22 277 5 0 0 0 - - -;
#X obj 73 277 print;
#X obj 323 1202 list trim;
#X obj 320 1174 list prepend send;
#X obj 228 89 bng 15 250 50 0 empty empty empty 17 7 0 10 -262144 -1
-1;
#X obj 22 356 netreceive -u -b 97217;
#X obj 22 379 oscparse;
#X obj 22 402 list trim;
#X obj 22 448 print;
#X text 261 88 /cyperus/list/mains;
#X obj 488 199 oscformat cyperus add bus;
#X msg 82 1458 list / 0;
#X text 93 1518 /cyperus/list/buses / 0;
#X text 56 30 TEST BUS OPERATIONS;
#X text 97 1416 list single top-level bus peer;
#X text 369 1417 list all top-level bus peers;
#X text 365 1519 /cyperus/list/buses / 1;
#X msg 354 1459 list / 1;
#X obj 715 197 oscformat cyperus add bus;
#X obj 943 194 oscformat cyperus add bus;
#X obj 1173 191 oscformat cyperus add bus;
#X msg 488 169 list / main0 in out;
#X text 491 227 /cyperus/add/bus / main0 in out;
#X msg 715 167 list / main1 in out;
#X text 718 225 /cyperus/add/bus / main1 in out;
#X msg 943 164 list / main2 in out;
#X text 946 222 /cyperus/add/bus / main2 in out;
#X msg 1173 161 list / main3 in out;
#X text 1176 219 /cyperus/add/bus / main3 in out;
#X obj 228 120 oscformat cyperus list main;
#X obj 354 1489 oscformat cyperus list bus;
#X obj 82 1488 oscformat cyperus list bus;
#X text 90 1594 list bus ports;
#X msg 75 1636 list /;
#X obj 75 1666 oscformat cyperus list bus_port;
#X text 86 1696 /cyperus/list/bus_port /;
#X connect 0 0 2 0;
#X connect 1 0 2 0;
#X connect 2 0 3 0;
#X connect 2 0 4 0;
#X connect 5 0 2 0;
#X connect 6 0 5 0;
#X connect 7 0 32 0;
#X connect 8 0 9 0;
#X connect 9 0 10 0;
#X connect 10 0 11 0;
#X connect 13 0 6 0;
#X connect 14 0 34 0;
#X connect 20 0 33 0;
#X connect 21 0 6 0;
#X connect 22 0 6 0;
#X connect 23 0 6 0;
#X connect 24 0 13 0;
#X connect 26 0 21 0;
#X connect 28 0 22 0;
#X connect 30 0 23 0;
#X connect 32 0 6 0;
#X connect 33 0 6 0;
#X connect 34 0 6 0;
#X connect 36 0 37 0;
#X connect 37 0 6 0;
