#N canvas 3832 29 2110 2109 10;
#X msg 1675 918 connect localhost 97211;
#X msg 1766 950 disconnect;
#X obj 1675 1011 netsend -u -b;
#X floatatom 1675 1107 5 0 0 0 - - -;
#X obj 1726 1107 print;
#X obj 1163 995 list trim;
#X obj 1160 967 list prepend send;
#X obj 25 81 bng 15 250 50 0 empty empty empty 17 7 0 10 -262144 -1
-1;
#X obj 1894 916 netreceive -u -b 97217;
#X obj 1894 939 oscparse;
#X obj 1894 962 list trim;
#X obj 1894 1008 print;
#X text 58 80 /cyperus/list/mains;
#X obj 285 191 oscformat cyperus add bus;
#X msg 77 1573 list / 0;
#X text 89 1633 /cyperus/list/buses / 0;
#X text 56 30 TEST BUS OPERATIONS;
#X text 93 1531 list single top-level bus peer;
#X text 365 1532 list all top-level bus peers;
#X text 361 1634 /cyperus/list/buses / 1;
#X msg 350 1574 list / 1;
#X obj 512 189 oscformat cyperus add bus;
#X obj 740 186 oscformat cyperus add bus;
#X obj 970 183 oscformat cyperus add bus;
#X msg 285 161 list / main0 in out;
#X text 288 219 /cyperus/add/bus / main0 in out;
#X msg 512 159 list / main1 in out;
#X text 515 217 /cyperus/add/bus / main1 in out;
#X msg 740 156 list / main2 in out;
#X text 743 214 /cyperus/add/bus / main2 in out;
#X text 973 211 /cyperus/add/bus / main3 in out;
#X obj 25 112 oscformat cyperus list main;
#X obj 350 1604 oscformat cyperus list bus;
#X obj 78 1603 oscformat cyperus list bus;
#X text 68 710 list bus ports;
#X obj 53 782 oscformat cyperus list bus_port;
#X text 64 812 /cyperus/list/bus_port /;
#X msg 970 153 list / main3 in0|in1|in2 out0|out1;
#X obj 971 292 oscformat cyperus add bus;
#X obj 65 1759 oscformat cyperus list bus;
#X text 80 1687 list single top-level bus descendant;
#X text 76 1789 /cyperus/list/buses / 2;
#X obj 359 1759 oscformat cyperus list bus;
#X text 374 1687 list all top-level bus descendants;
#X text 370 1789 /cyperus/list/buses / 3;
#X obj 621 1607 oscformat cyperus list bus;
#X text 636 1493 list single top-level bus descendant;
#X text 632 1637 /cyperus/list/buses / 0;
#X text 974 320 /cyperus/add/bus / deep0 in out;
#X obj 1601 346 metro 1000;
#X obj 1593 403 bng 15 250 50 0 empty empty empty 17 7 0 10 -262144
-1 -1;
#X obj 1599 274 bng 15 250 50 0 empty empty empty 17 7 0 10 -262144
-1 -1;
#X msg 1666 267 stop;
#X msg 65 1729 list /7d8a28bb-2074-46b5-a9af-fd1fabc02ab9 2;
#X msg 357 1729 list /7d8a28bb-2074-46b5-a9af-fd1fabc02ab9 3;
#X msg 621 1534 list /7d8a28bb-2074-46b5-a9af-fd1fabc02ab9/a59f24b2-3203-446c-a92e-c8cde6f7c35d
1;
#X msg 970 262 list /28ca3f34-57af-45dc-9065-bf6ae1f1e185 deep0 in
out;
#X obj 56 430 oscformat cyperus add bus;
#X msg 56 400 list / main0 in out;
#X text 59 458 /cyperus/add/bus / main0 in out;
#X obj 50 1022 oscformat cyperus add connection;
#X text 47 1051 /cyperus/add/connection;
#X text 64 938 add connection;
#X text 65 517 list all top-level bus peers;
#X text 61 619 /cyperus/list/buses / 1;
#X msg 50 559 list / 1;
#X obj 50 589 oscformat cyperus list bus;
#X msg 53 752 list /e5edea33-0cd0-4e6b-9149-50683191f57c;
#X msg 50 956 list /mainsd1a7adc5-af2a-4a91-9a55-e8d8c1f68f98 /e5edea33-0cd0-4e6b-9149-50683191f57c:1f9b5a7d-4d38-40a2-a80e-cfb1640c3bc9
;
#X connect 0 0 2 0;
#X connect 1 0 2 0;
#X connect 2 0 3 0;
#X connect 2 0 4 0;
#X connect 5 0 2 0;
#X connect 6 0 5 0;
#X connect 7 0 31 0;
#X connect 8 0 9 0;
#X connect 9 0 10 0;
#X connect 10 0 11 0;
#X connect 13 0 6 0;
#X connect 14 0 33 0;
#X connect 20 0 32 0;
#X connect 21 0 6 0;
#X connect 22 0 6 0;
#X connect 23 0 6 0;
#X connect 24 0 13 0;
#X connect 26 0 21 0;
#X connect 28 0 22 0;
#X connect 31 0 6 0;
#X connect 32 0 6 0;
#X connect 33 0 6 0;
#X connect 35 0 6 0;
#X connect 37 0 23 0;
#X connect 38 0 6 0;
#X connect 39 0 6 0;
#X connect 42 0 6 0;
#X connect 45 0 6 0;
#X connect 49 0 50 0;
#X connect 50 0 55 0;
#X connect 51 0 49 0;
#X connect 52 0 49 0;
#X connect 53 0 39 0;
#X connect 54 0 42 0;
#X connect 55 0 45 0;
#X connect 56 0 38 0;
#X connect 57 0 6 0;
#X connect 58 0 57 0;
#X connect 60 0 6 0;
#X connect 65 0 66 0;
#X connect 65 0 6 0;
#X connect 66 0 6 0;
#X connect 67 0 35 0;
#X connect 68 0 60 0;
